<svg width="64" height="61" viewBox="0 0 64 61" fill="none" xmlns="http://www.w3.org/2000/svg">
<path d="M62.0447 41.4036C61.906 45.6203 60.1166 49.6709 57.0106 52.799C53.9046 55.9272 49.6945 57.919 45.1663 58.4026L23.8781 60.6417C19.4259 61.1048 14.9678 60.0774 11.3112 57.7456C7.65459 55.4138 5.04129 51.9317 3.94464 47.9302C4.18717 47.9594 4.41658 48.0174 4.66554 48.0311C8.56725 48.2355 12.3164 49.4287 15.505 51.481C17.704 52.9163 20.4049 53.5514 23.1025 53.2677C25.8001 52.9839 28.3097 51.8008 30.162 49.9394C33.7075 46.4201 38.4845 44.1852 43.6142 43.6457L59.5803 41.9664C60.4215 41.8701 61.2488 41.6812 62.0447 41.4036ZM0.0263634 38.5076C0.141122 39.7048 0.70799 40.8195 1.62745 41.6559C2.54692 42.4924 3.76021 42.9971 5.05433 43.0815C9.93047 43.3385 14.6156 44.8311 18.6 47.3968C19.7535 48.148 21.1693 48.4803 22.5833 48.3316C23.9974 48.1828 25.3131 47.5633 26.285 46.5885C30.716 42.1903 36.6857 39.3969 43.0963 38.7219L59.0624 37.0426C60.4739 36.8941 61.773 36.233 62.674 35.2046C63.5749 34.1762 64.0039 32.8648 63.8666 31.5589C63.7292 30.253 63.0368 29.0596 61.9416 28.2412C60.8464 27.4228 59.4381 27.0464 58.0266 27.1948L5.05632 32.7662C3.57848 32.9216 2.2183 33.6138 1.275 34.6906C0.331705 35.7673 -0.117444 37.1403 0.0263634 38.5076ZM60.1682 21.9763L60.2065 22.3407C59.316 22.2114 58.4094 22.188 57.5088 22.271L4.53843 27.8423C3.55352 27.9595 2.58855 28.2017 1.67077 28.5621L1.62572 28.1337C0.946937 21.6057 3.0948 15.0527 7.59806 9.91248C12.1013 4.7723 18.5922 1.46476 25.6465 0.715546L30.9686 0.15578C38.0244 -0.579098 45.0614 1.3056 50.5355 5.39637C56.0097 9.48713 59.4739 15.4499 60.1682 21.9763ZM16.815 19.0686C16.7463 18.4157 16.4001 17.819 15.8525 17.4098C15.3049 17.0005 14.6008 16.8123 13.8951 16.8866C13.1893 16.9608 12.5398 17.2914 12.0893 17.8056C11.6388 18.3198 11.4243 18.9755 11.493 19.6284C11.5617 20.2813 11.9079 20.8781 12.4555 21.2873C13.0031 21.6965 13.7072 21.8847 14.4129 21.8104C15.1187 21.7362 15.7683 21.4056 16.2187 20.8915C16.6692 20.3773 16.8837 19.7216 16.815 19.0686ZM24.0213 10.8432C23.9526 10.1902 23.6064 9.59351 23.0588 9.1843C22.5112 8.77508 21.807 8.58689 21.1013 8.66112C20.3955 8.73535 19.746 9.06592 19.2955 9.58011C18.845 10.0943 18.6305 10.75 18.6992 11.4029C18.7679 12.0559 19.1141 12.6526 19.6617 13.0618C20.2093 13.471 20.9134 13.6592 21.6192 13.585C22.3249 13.5108 22.9745 13.1802 23.425 12.666C23.8754 12.1518 24.0899 11.4961 24.0213 10.8432Z" fill="#35956F"/>
</svg>
